<?xml version="1.0" encoding="utf-8" standalone="yes"?>
<!DOCTYPE svg PUBLIC "-//W3C//DTD SVG 1.1//EN" "http://www.w3.org/Graphics/SVG/1.1/DTD/svg11.dtd">
<svg width="54" height="54" viewBox="0 0 54 54" style="fill:none;stroke:none;fill-rule:evenodd;clip-rule:evenodd;stroke-linecap:round;stroke-linejoin:round;stroke-miterlimit:1.5;" version="1.1" xmlns="http://www.w3.org/2000/svg" xmlns:xlink="http://www.w3.org/1999/xlink"><g id="items" style="isolation: isolate"><g id="blend" style="mix-blend-mode: normal"><g id="g-root-hear_1ly1ag2th115a-fill" data-item-order="1000000000" transform="translate(3, 3)"></g><g id="g-root-hear_1ly1ag2th115a-stroke" data-item-order="1000000000" transform="translate(3, 3)"><g id="hear_1ly1ag2th115a-stroke" fill="none" stroke-linecap="round" stroke-linejoin="round" stroke-miterlimit="4" stroke="#fd6a65" stroke-width="2"><g><path d="M 33.374283 20.254999C 33.374283 26.811666 23.994284 37.125 23.994284 37.125C 23.994284 37.125 14.61426 26.811666 14.61426 20.254999C 14.625927 15.075 18.825926 10.875 24.005949 10.875C 29.185949 10.875 33.385948 15.075 33.385948 20.254999L 33.374283 20.254999ZM 19.212561 19.804153C 19.212561 18.308638 20.424925 17.096273 21.920416 17.096273C 22.7589 17.096273 23.508249 17.477306 24.005016 18.075644C 24.501667 17.477306 25.251133 17.096273 26.0895 17.096273C 27.585049 17.096273 28.797449 18.308638 28.797449 19.804153C 28.797449 20.609993 28.445349 21.333607 27.886749 21.829649L 24.800566 24.688099C 24.353266 25.102266 23.662483 25.102266 23.215183 24.688099L 20.195618 21.891716C 19.595156 21.395054 19.212561 20.644281 19.212561 19.804153Z"></path></g></g></g></g></g></svg>